<svg id="Camada_1" data-name="Camada 1" xmlns="http://www.w3.org/2000/svg" viewBox="0 0 126.18 127.33"><defs><style>.cls-1{fill:#fff;}</style></defs><path class="cls-1" d="M27.72,30.34c27.1,0,53.55-.14,80,0,18.39.13,22.12-4.13,15.25,20-2.73,9.6-5.24,19.3-7.12,29.1-1.65,8.64-6,12.43-14.94,12.32-22.68-.27-45.36,0-68,.07-8,0-11.65-3.72-12.5-11.75-1.95-18.34-4.44-36.62-6.86-54.9-.82-6.19,0-14.37-9.81-14.06-4.22.13-4.76-9.83-2-10C9.74.51,10.31.35,17.39,0c3-.14,6,5.38,7,8.85C26.21,15.41,26.58,22.39,27.72,30.34Z" transform="translate(0 0)"/><circle class="cls-1" cx="39.68" cy="113.79" r="13.55"/><circle class="cls-1" cx="92.61" cy="113.79" r="13.55"/></svg>