<svg id="Camada_1" data-name="Camada 1" xmlns="http://www.w3.org/2000/svg" viewBox="0 0 48 48"><path d="M24,6.23c.62-.74,1.11-1.32,1.61-1.89a12.17,12.17,0,0,1,18.08-.6,15.27,15.27,0,0,1,1.16,19.89C38.53,31.53,32,39.25,25.56,47c-1.09,1.32-2,1.31-3.16,0C16,39.25,9.5,31.58,3.19,23.72a15.31,15.31,0,0,1,1.14-20c5.32-5.23,13.23-4.88,18.19.8Zm-.13,36.59a2.89,2.89,0,0,0,.46-.31c5.95-7.19,12-14.31,17.83-21.62a10.87,10.87,0,0,0-1-14.18,8.73,8.73,0,0,0-12.9.36c-1,1.09-1.87,2.29-2.85,3.39s-1.92,1.13-2.95,0c-.84-.93-1.6-1.94-2.41-2.89C16.4,3.21,10.63,2.85,6.77,6.71a11.09,11.09,0,0,0-.46,14.86c2.25,2.75,4.52,5.48,6.78,8.21Z"/></svg>