<svg id="Camada_1" data-name="Camada 1" xmlns="http://www.w3.org/2000/svg" viewBox="0 0 364.16 311.67"><defs><style>.cls-1{fill:#fff;}</style></defs><path class="cls-1" d="M181.29,43c11.32-8.64,22-17.1,33-25.11C256.68-13,316.55-.28,341.25,28.56c23.1,27,27.4,58.29,18.84,91.59-6.78,26.36-23.35,47.15-42.42,65.72-41.41,40.32-83.26,80.19-125,120.2-7.72,7.4-13.74,7.46-21.32.19C128.38,265,85.1,224,42.58,182.2,21.85,161.83,5.35,138,1.22,108.44-6,56.4,19.14,9.33,78.8,1c36.23-5,64.62,9.75,90.93,31.72C173.74,36.11,177.55,39.69,181.29,43Z"/></svg>