<?xml version="1.0" encoding="utf-8"?>
<!-- Generator: Adobe Illustrator 26.0.0, SVG Export Plug-In . SVG Version: 6.00 Build 0)  -->
<svg version="1.1" id="Camada_1" xmlns="http://www.w3.org/2000/svg" xmlns:xlink="http://www.w3.org/1999/xlink" x="0px" y="0px"
	 viewBox="0 0 147 111" style="enable-background:new 0 0 147 111;" xml:space="preserve">
<style type="text/css">
	.st0{opacity:0.46;}
	.st1{fill-rule:evenodd;clip-rule:evenodd;fill:#FEFEFE;}
	.st2{fill-rule:evenodd;clip-rule:evenodd;fill:#ED3237;}
	.st3{fill-rule:evenodd;clip-rule:evenodd;fill:#00AFEF;}
	.st4{fill-rule:evenodd;clip-rule:evenodd;fill:#EC268F;}
	.st5{fill-rule:evenodd;clip-rule:evenodd;fill:#00A859;}
	.st6{fill:#ED3237;}
</style>
<g>
	<g class="st0">
		<image style="overflow:visible;enable-background:new    ;" width="147" height="111" xlink:href="9F19874B.png" >
		</image>
	</g>
	<path class="st1" d="M113.4,70.9c0.4,0.1,0.8,0.2,1.1,0.4h0.1c0.5,0.2,1,0.6,1.4,1c0.7,0.1,1.3,0.2,1.9,0.5
		c1.1,0.5,1.9,1.5,2.2,2.6c0.1,0.4,0.1,0.9,0.1,1.4c0.6,0,1.2,0.2,1.8,0.4h0.6c1.1,0,2.1,0.5,2.9,1.2l0.2,0.2c0.3-0.4,0.7-0.7,1-1.1
		c0.5-0.5,1-0.9,1.5-1.3c0.5-0.4,1.2-0.8,1.8-1c0.6-0.2,1.2-0.3,1.8-0.3c1.5-0.2,2.9,0.4,4,1.4c1,1,1.5,2.3,1.3,3.7
		c0,0.2-0.1,0.4-0.1,0.6c0.5,0.1,1,0.3,1.4,0.6c0.9,0.6,1.6,1.6,1.8,2.7c0.2,1.3-0.2,2.5-1,3.5c-1.1,1.2-2.3,2.4-3.6,3.3
		c-1.2,0.8-2.5,1.4-3.9,1.7c-0.7,0.4-1.5,0.7-2.3,0.8c-1.1,0.2-2.1,0.1-3.2-0.1c-0.7-0.2-1.4-0.5-2.1-0.9c-0.5,0.3-1.1,0.6-1.7,0.8
		c-1.1,0.4-2.4,0.5-3.6,0.1c-0.2-0.1-0.4-0.1-0.6-0.2c-0.6,0.3-1.2,0.5-1.9,0.7c-1,0.2-1.9,0.3-2.9,0.1c-0.6-0.1-1.1-0.3-1.6-0.6
		h-0.1c-0.9,0.6-1.9,1-3,1.1c-1.3,0.2-2.7-0.1-3.8-0.9c-1,0.6-2,1-3.1,1.2c-0.7,0.4-1.5,0.7-2.3,0.8c-1.1,0.2-2.1,0.1-3.2-0.1
		c-0.8-0.2-1.5-0.6-2.2-1c-0.3,0.2-0.6,0.3-0.9,0.5c-1.1,0.5-2.2,0.8-3.4,0.9c-1.4,0.1-2.8-0.1-4.1-0.7c-1.2-0.6-2.1-1.5-2.8-2.6
		c-0.3-0.4-0.5-0.9-0.7-1.4c-0.5,0.2-0.9,0.3-1.4,0.4c-0.4,0.8-0.8,1.6-1.3,2.4c-0.6,1.2-1.4,2.4-2.2,3.5c-0.6,0.8-1.3,1.5-2.1,2.2
		c-0.7,0.6-1.6,1.1-2.4,1.4c-1,0.4-2.1,0.5-3.1,0.3c-1.4-0.3-2.6-1.2-3.3-2.4c-0.5-1.1-0.7-2.3-0.5-3.4c0.2-1.1,0.6-2.2,1.1-3.2
		c0.5-0.9,1-1.8,1.6-2.6c-0.5-1.3-0.4-2.8,0.4-4l-0.2-0.1c-1.5-0.8-2.4-2.2-2.5-3.9c-0.1-1.5,0.3-2.9,1.2-4.1
		c0.1-0.1,0.1-0.2,0.2-0.3l0,0c-7.1,0.6-14-2.4-18.3-8c-2.9,5.7-8.5,9.5-14.8,10l-10.6,0.8c-4.8,0.3-8.9-3.2-9.3-8L13.5,53
		c-0.2-3,1.1-5.9,3.6-7.7c-2.7-1.4-4.5-4.1-4.7-7.1l-1.4-18.9c-0.4-4.8,3.2-9,8-9.3l12.5-1c5.1-0.4,10,2.1,12.7,6.4l0.7-2
		c3-8.3,16.8-9.3,21.1-1.6l4.5,8.2L70,14.9c-0.4-4.8,3.2-9,8-9.3l12.5-1c5.2-0.4,10.2,2.2,12.9,6.8l0.8-2.3c3-8.3,16.9-9.3,21.1-1.6
		l10,18.3c1.8,3.4,1.2,7.6-1.5,10.3c4,1.7,5.7,6.4,4,10.3c-0.4,0.9-0.9,1.7-1.6,2.3c2.4,2.4,2.9,6.2,1.1,9.2
		c1.6,1.3,2.6,3.3,2.8,5.4c0.3,4.3-2.9,8.1-7.2,8.4l-11.8,0.9H121c-2.4,0.1-4.8-0.8-6.6-2.5C114.1,70.3,113.8,70.6,113.4,70.9z
		 M102.4,74.4c-2.1,0.1-4.3-0.2-6.4-0.8c-0.1,1-0.4,1.9-1,2.7c-0.6,1-1.4,1.8-2.4,2.5c1.3,0.3,2.5,0.9,3.4,1.9
		c0.3-0.4,0.7-0.8,1-1.2c0.5-0.5,1-0.9,1.5-1.3c0.4-0.4,0.9-0.6,1.5-0.8c0.1-0.4,0.3-0.8,0.5-1.1c0.4-0.6,0.8-1.1,1.3-1.6
		C102,74.7,102.1,74.6,102.4,74.4L102.4,74.4z M88.2,69.7c-1.2-1-2.3-2.2-3.2-3.5c-1.3,2.6-3.2,4.8-5.5,6.5h0.8
		c1.2,0,2.3-0.1,3.4-0.2c0.8-0.1,1.6-0.2,2.3-0.5c0.2,0,0.3-0.2,0.4-0.3C86.9,71,87.5,70.3,88.2,69.7L88.2,69.7z M111.2,56.9
		l-0.2-3.8c-2.5,1-5.3,1-7.7-0.2c-0.5-0.1-1-0.2-1.5-0.2c-1.6,0.1-3.5,1.4-3.4,3.2s2.2,2.8,3.8,2.6c0.5,0,1-0.2,1.4-0.4
		C105.9,56.8,108.7,56.3,111.2,56.9L111.2,56.9z M112.1,39.7c1.4-2,3.7-3.2,6.1-3.5h0.2l3.3-0.2c-0.4-0.5-0.8-1-1.2-1.5l-7.1,0.5
		c-0.7,1.5-1.7,2.7-3,3.7C110.9,39,111.5,39.3,112.1,39.7L112.1,39.7z M98.8,37.2c-1.5-1.7-2.2-3.9-2.1-6.1c-1.3,0.5-2.6,0.8-4,0.9
		l-3.8,0.3l0,0c0.4,4.8-3.2,9-7.9,9.4c-2.1,0.2-4.2-0.4-5.9-1.7c-0.3,0.3-0.6,0.6-0.9,0.9c3.8,1.3,7.1,3.7,9.5,6.9
		C86.7,42.1,92.4,38.2,98.8,37.2z M48.3,50.5c2.9-5.2,7.8-9,13.6-10.2c-0.3-0.4-0.6-0.8-0.9-1.2l-7.1,0.5c-1.8,4.3-6.7,6.3-11.1,4.7
		l0,0c-3.4-1.4-5.7-4.8-5.6-8.5c-1.2,0.4-2.5,0.7-3.7,0.8l-3.8,0.3l0,0c0.2,2.3-0.5,4.5-2,6.3l4.4-0.3
		C38.5,42.4,44.6,45.3,48.3,50.5z M31.2,59.2l0.3,4l1.8-0.1c0.9-0.1,1.3-1.3,1.2-2.1s-0.6-1.9-1.5-1.9L31.2,59.2z M66.4,55.5
		c-1.7,0.1-3.5,1.4-3.4,3.2s2.2,2.8,3.8,2.6s3.5-1.4,3.4-3.2S68,55.4,66.4,55.5z"/>
	<path class="st2" d="M19.2,13.5L19.2,13.5l12.5-1c5.6-0.4,10.6,3.8,11,9.5l0,0c0.4,5.6-3.8,10.5-9.5,11l-7.3,0.6l0.3,3.7
		c0.2,2.8-1.9,5.3-4.8,5.5l0,0c-2.8,0.2-5.3-1.9-5.6-4.8l-1.5-18.9C14.2,16.3,16.3,13.8,19.2,13.5z M25,21.3l0.3,4.1l5.2-0.4
		c1.1-0.1,1.9-1.1,1.9-2.2l0,0c-0.1-1.1-1.1-2-2.2-1.9L25,21.3z"/>
	<path class="st3" d="M62.9,13.6l10,18.3c1.3,2.5,0.4,5.6-2,7l0,0c-2.4,1.4-5.6,0.6-7-1.9c0,0,0,0,0-0.1v-0.1L63,35.4l-11.6,0.8
		l-0.6,1.6c-0.9,2.7-3.8,4.1-6.5,3.1c0,0,0,0,0,0h-0.1l0,0c-2.6-1-4-3.9-3.1-6.6l7.1-19.6C50.2,9.3,60.1,8.6,62.9,13.6z M58.7,27.5
		L56.2,23l-1.8,4.8L58.7,27.5z"/>
	<path class="st4" d="M122.3,9l10,18.3c1.3,2.5,0.4,5.6-2.1,7l0,0c-2.4,1.4-5.6,0.6-7-1.9c0,0,0,0,0-0.1v-0.1l-0.8-1.5l-11.6,0.9
		l-0.6,1.7c-0.9,2.7-3.8,4.1-6.5,3.1c0,0,0,0,0,0h-0.1l0,0c-2.7-1-4.1-4-3.1-6.7l7.1-19.7C109.6,4.7,119.6,4,122.3,9z M118.1,22.9
		l-2.4-4.5l-1.7,4.8L118.1,22.9z"/>
	<path class="st5" d="M78.3,9L78.3,9l12.5-1c5.6-0.4,10.6,3.8,11,9.5l0,0c0.4,5.6-3.7,10.6-9.4,11.1l-7.3,0.6l0.3,3.5
		c0.2,2.9-1.9,5.4-4.8,5.6h-0.1c-2.8,0.2-5.3-1.9-5.5-4.8l-1.4-18.9C73.3,11.7,75.5,9.2,78.3,9C78.3,9,78.3,9,78.3,9z M84.1,16.8
		l0.3,4.1l5.1-0.4c1.1-0.1,1.9-1.1,1.9-2.2l0,0c-0.1-1.1-1.1-2-2.2-1.9L84.1,16.8z"/>
	<path class="st2" d="M118.6,39.7L118.6,39.7l11.8-0.9c2.4-0.2,4.4,1.6,4.6,4l0,0c0.2,2.4-1.6,4.5-4,4.6c0,0,0,0,0,0l0,0l-6.6,0.5
		l0.2,2.4l6-0.5c2.2-0.2,4.1,1.5,4.3,3.7l0,0l0,0c0.2,2.2-1.5,4.1-3.7,4.3c0,0,0,0,0,0l0,0l-6,0.5l0.1,1.6l6.7-0.5
		c2.4-0.2,4.5,1.6,4.6,4c0,0,0,0,0,0l0,0l0,0c0.2,2.4-1.6,4.4-4,4.6L120.9,69h-0.1c-2.8,0.1-5.2-2-5.4-4.8l-1.4-18.9
		c-0.2-2.8,1.8-5.3,4.7-5.5L118.6,39.7z"/>
	<path class="st3" d="M21.8,47.2l10.6-0.8c8-0.6,15.1,5.4,15.7,13.4l0,0c0.6,8-5.4,15.1-13.5,15.7L24,76.4l0,0
		c-2.9,0.2-5.3-1.9-5.6-4.8c0,0,0,0,0,0l0,0L17,52.7C16.8,49.9,18.9,47.4,21.8,47.2z M29.1,55.9l0.9-0.1l2.6-0.2
		c2.7-0.2,5.1,2.1,5.3,5.1l0,0c0.4,2.8-1.6,5.5-4.5,5.9l-2.6,0.2L30,66.8L28.2,67L28.1,65l-0.5-7.1l-0.1-2L29.1,55.9z"/>
	<path class="st4" d="M65.4,43.2c9.2-0.7,17.3,5.5,17.9,13.9S77,72.9,67.7,73.6s-17.3-5.5-17.9-13.9S56.2,44,65.4,43.2z M66.1,52
		c3.9-0.3,7.3,2.3,7.6,5.9s-2.7,6.7-6.6,7s-7.4-2.3-7.7-5.9S62.2,52.3,66.1,52L66.1,52z"/>
	<path class="st5" d="M100.8,40.5c2-0.2,4,0,6,0.5c4.8,1.2,5.6,4.4,4.8,6.6s-3.5,3.6-7.1,2c-1-0.3-2-0.4-3-0.3
		c-3.9,0.3-6.9,3.4-6.6,7s3.7,6.2,7.6,5.9c1-0.1,2-0.3,2.9-0.8c3.3-2.1,6.1-1.2,7.3,0.9c1.2,2.1,0.9,5.3-3.7,7.3
		c-1.8,0.8-3.8,1.3-5.8,1.4c-9.2,0.7-17.3-5.5-17.9-13.9S91.5,41.2,100.8,40.5z"/>
	<path class="st6" d="M70.8,79.3c0.5-0.9,1.4-1.6,2.3-2c1.1-0.4,2.2-0.7,3.3-0.8c1.3-0.2,2.5-0.2,3.8-0.3c1.3,0,2.6-0.1,3.8-0.2
		c1.1-0.1,2.2-0.3,3.2-0.7c0.9-0.3,1.7-0.9,2.2-1.7c0.3-0.6,0.8-1.1,1.3-1.4c0.3-0.2,0.8-0.2,1.1-0.1c0.3,0.2,0.5,0.5,0.6,0.9
		c0,0.5-0.1,1-0.4,1.5c-0.4,0.7-1,1.2-1.6,1.7c-0.6,0.4-1.3,0.7-2,0.9c-0.8,0.2-1.6,0.4-2.4,0.4c-0.8,0.1-1.7,0.2-2.6,0.2L80.3,85
		c0.6,0,1.2,0,1.8-0.1c0.6-0.1,1.2-0.3,1.8-0.6c0.6-0.3,1-0.3,1-0.1c0,0.4-0.1,0.7-0.3,1c-0.4,0.6-0.8,1.1-1.3,1.5
		C83,87,82.5,87.3,82,87.6c-0.5,0.2-1,0.4-1.5,0.4c-0.5,0.1-1,0.1-1.5,0.1c-0.8,1.5-1.5,2.9-2.1,4.1c-0.6,1.1-1.2,2.1-1.9,3.1
		c-0.4,0.5-0.9,1-1.5,1.4c-0.4,0.4-0.9,0.6-1.5,0.8c-0.4,0.2-0.8,0.2-1.2,0.1c-0.3-0.1-0.6-0.3-0.8-0.6c-0.2-0.4-0.2-0.9-0.1-1.3
		c0.1-0.8,0.4-1.5,0.8-2.2c0.5-1,1.1-2,1.9-2.9c0.8-1,1.6-2.1,2.6-3.1c-0.4-0.1-0.8,0-1.2,0.2c-0.8,0.4-1.3,0.6-1.5,0.3
		c-0.2-0.2-0.1-0.6,0.4-1.2c0.6-0.7,1.3-1.3,2.2-1.7c0.8-0.3,1.6-0.4,2.4-0.4c0.8-1,1.7-2.1,2.5-3.3c0.8-1.2,1.6-2.5,2.3-3.7
		c-0.7,0-1.5,0.1-2.2,0.3c-0.7,0.1-1.4,0.3-2.1,0.5c-0.7,0.2-1.4,0.5-2,0.9C75,80,74.4,80.5,73.9,81c-0.5,0.6-1.1,1-1.7,1.2
		c-0.5,0.2-1,0.2-1.4,0c-0.4-0.2-0.6-0.6-0.6-1.1C70.2,80.5,70.4,79.8,70.8,79.3L70.8,79.3z M88.5,83.2c0.6-0.4,1.3-0.7,2.1-0.8
		c0.6-0.1,1.1,0,1.7,0.2c0.5,0.2,0.8,0.5,1.1,0.9c0.3,0.4,0.4,0.9,0.4,1.4c0,0.5-0.2,1.1-0.4,1.5c-0.4,0.6-0.9,1.1-1.4,1.5
		c-0.5,0.3-0.9,0.6-1.5,0.8C90,88.8,89.4,89,88.8,89c0.3,0.4,0.8,0.7,1.3,0.8c0.6,0.1,1.2,0,1.7-0.1c0.6-0.2,1.2-0.5,1.8-0.9
		c0.6-0.4,1.2-0.9,1.6-1.5c0.2-0.2,0.4-0.4,0.7-0.4c0.2-0.1,0.4,0,0.6,0.1c0.1,0.1,0.2,0.3,0.2,0.5c0,0.3-0.2,0.6-0.4,0.8
		c-0.2,0.3-0.6,0.6-1,1.1c-0.4,0.5-0.9,0.9-1.4,1.3c-0.6,0.4-1.2,0.8-1.8,1.1c-0.7,0.3-1.4,0.5-2.1,0.6c-0.8,0.1-1.5-0.1-2.2-0.4
		c-0.6-0.3-1.1-0.7-1.4-1.3c-0.3-0.5-0.5-1.1-0.6-1.7c-0.1-0.7,0-1.4,0.2-2.1c0.2-0.7,0.6-1.4,1-2C87.3,84.2,87.9,83.6,88.5,83.2z
		 M89.8,84.9c-0.4,0.3-0.7,0.7-1,1.1c-0.3,0.4-0.5,1-0.5,1.5c0.5,0,1.1-0.1,1.5-0.3c0.4-0.2,0.9-0.4,1.2-0.8c0.3-0.3,0.5-0.6,0.6-1
		c0.1-0.3,0-0.5-0.1-0.8c-0.2-0.2-0.4-0.3-0.7-0.3C90.5,84.5,90.1,84.6,89.8,84.9L89.8,84.9z M102.4,80.6c0.4-0.1,0.9,0,1.3,0.3
		c0.2,0.2,0.4,0.5,0.3,0.9c0,0.3-0.2,0.6-0.5,0.8c-0.4,0.2-0.9,0.2-1.3,0c-0.2,0.3-0.3,0.7-0.2,1.1c0.1,0.5,0.1,1,0.2,1.6
		c0.1,0.6,0.2,1.2,0.2,1.8c0.1,0.7,0,1.4-0.2,2c1.4-0.6,2.7-1.5,3.6-2.7c0.1-0.2,0.3-0.3,0.5-0.2c0.2,0,0.4,0,0.5,0.1
		c0.2,0.1,0.3,0.3,0.3,0.4c0,0.2-0.1,0.4-0.2,0.6c-0.9,1-1.9,1.9-3,2.7c-1,0.7-2.1,1.1-3.2,1.2c-0.5,0.3-1,0.6-1.6,0.7
		c-0.6,0.1-1.2,0.1-1.7-0.1c-0.6-0.1-1.1-0.4-1.5-0.8c-0.4-0.4-0.8-0.9-0.9-1.4C95,89.4,95,89.2,95,88.9c0-0.2,0.1-0.4,0.3-0.6
		c-0.1-0.1-0.2-0.3-0.3-0.5c0-0.2,0-0.4,0.2-0.6c0.7-0.8,1.3-1.6,1.8-2.2c0.5-0.6,1-1.2,1.4-1.7c0.3-0.4,0.7-0.9,1.1-1.2
		c0.3-0.3,0.6-0.6,1-0.9c0.3-0.2,0.6-0.4,0.9-0.5C101.7,80.7,102.1,80.6,102.4,80.6z M100.4,83.2c-0.5,0.4-1,0.9-1.3,1.5
		c-0.5,0.7-1.2,1.6-2.1,2.7c0.2,0,0.5,0.1,0.7,0.2c0.2,0.2,0.3,0.4,0.4,0.7c0,0.2,0.1,0.4,0.2,0.6c0.1,0.1,0.2,0.2,0.4,0.3
		c0.2,0.1,0.3,0.1,0.5,0c0.2-0.1,0.3-0.2,0.4-0.3c0.3-0.3,0.5-0.7,0.6-1.2c0.1-0.5,0.1-1,0.1-1.5v-1.5
		C100.2,84.2,100.3,83.7,100.4,83.2L100.4,83.2z M105.1,77c0.8-0.3,1.7-0.5,2.6-0.7c0.8-0.2,1.7-0.3,2.5-0.4c0.4-0.5,1-0.9,1.6-1.3
		c0.4-0.3,1-0.3,1.5-0.1c0.5,0.2,0.7,0.7,0.7,1.2l1.7,0.1c0.3,0,0.5,0.1,0.8,0.2c0.2,0.1,0.3,0.2,0.3,0.3s0,0.2-0.2,0.3
		c-0.2,0.1-0.4,0.2-0.7,0.2l-1,0.1l-1.2,0.2c-0.2,0.7-0.5,1.5-0.8,2.1c-0.4,0.8-0.9,1.6-1.4,2.3c-0.5,0.8-1,1.6-1.6,2.3
		c-0.5,0.7-1.1,1.4-1.7,2c0,0.5,0,0.9,0.1,1.3c0.1,0.3,0.3,0.6,0.6,0.8c0.3,0.2,0.6,0.3,0.9,0.2c0.4-0.1,0.7-0.3,1-0.5
		c0.4-0.2,0.7-0.5,1-0.8c0.3-0.3,0.6-0.6,0.9-1c0.2-0.2,0.4-0.4,0.7-0.4c0.2,0,0.4,0,0.5,0.1c0.1,0.1,0.2,0.3,0.2,0.5
		c0,0.3-0.1,0.5-0.3,0.7c-0.6,0.7-1.2,1.4-1.8,2c-0.5,0.5-1.1,1-1.7,1.4c-0.5,0.3-1,0.5-1.6,0.6c-0.5,0.1-1-0.1-1.4-0.4
		c-0.7-0.5-1.1-1.2-1.2-2.1c-0.2-1-0.2-2.1,0-3.1c0.2-1.2,0.5-2.4,0.9-3.6c0.4-1.2,1-2.3,1.6-3.4c-1,0.3-1.9,0.6-2.7,0.9
		c-0.4,0.2-0.8,0.3-1.3,0.3c-0.3,0-0.5,0-0.8-0.2c-0.2-0.1-0.3-0.3-0.3-0.5c0-0.2,0.1-0.5,0.2-0.7c0.1-0.3,0.3-0.5,0.6-0.7
		C104.4,77.3,104.7,77.1,105.1,77L105.1,77z M110.9,77.6c-0.2,0.3-0.5,0.6-0.6,1c-0.2,0.4-0.4,0.9-0.6,1.4s-0.4,1.1-0.6,1.6
		c-0.2,0.6-0.4,1.1-0.5,1.7l1.2-1.8c0.4-0.6,0.8-1.2,1.1-1.7s0.5-1,0.7-1.5c0.2-0.3,0.2-0.7,0.2-1L110.9,77.6L110.9,77.6z
		 M113.3,89.7c-0.6-0.5-0.9-1.3-0.9-2.1c0-0.8,0.2-1.7,0.6-2.4c0.4-0.9,1-1.6,1.7-2.3c0.7-0.7,1.4-1.3,2.3-1.8
		c0.7-0.4,1.6-0.7,2.4-0.8c0.8-0.1,1.6,0.1,2.2,0.6c0.3-0.1,0.6-0.2,0.9-0.2c0.3,0,0.5,0.1,0.7,0.3c0.2,0.2,0.3,0.4,0.3,0.7
		c0,0.3,0,0.7-0.1,1c-0.3,0.7-0.6,1.3-0.9,1.9c-0.4,0.6-0.8,1.3-1.3,1.8c0,0.2,0,0.5,0,0.7c0,0.2,0.1,0.3,0.3,0.4
		c0.3,0.1,0.7,0,1.3-0.3c0.8-0.6,1.6-1.3,2.2-2.1c0.2-0.2,0.4-0.4,0.7-0.5c0.2-0.1,0.4,0,0.5,0.1c0.1,0.1,0.2,0.3,0.2,0.5
		c0,0.3-0.2,0.5-0.3,0.7c-0.5,0.6-1,1.1-1.5,1.6c-0.5,0.5-1,0.9-1.5,1.3c-0.5,0.3-1,0.6-1.5,0.8c-0.5,0.2-1,0.2-1.5,0.1
		c-0.6-0.2-1-0.6-1.2-1.2c-0.5,0.4-1,0.7-1.6,1c-0.5,0.3-1,0.5-1.5,0.6c-0.5,0.1-0.9,0.1-1.4,0C113.9,90.2,113.5,90,113.3,89.7
		L113.3,89.7z M119.5,83.2c0.1-0.3,0.2-0.5,0.4-0.8c0.1-0.2,0.3-0.4,0.4-0.6c-0.4,0-0.8,0-1.1,0.2c-0.4,0.2-0.9,0.4-1.2,0.7
		c-0.4,0.3-0.8,0.7-1.1,1.1c-0.3,0.4-0.6,0.8-0.9,1.2c-0.2,0.4-0.4,0.8-0.4,1.2c-0.1,0.3,0,0.7,0.2,1c0.1,0.1,0.3,0.2,0.5,0.3
		c0.2,0,0.5,0,0.7-0.1c0.3-0.1,0.6-0.2,0.8-0.4c0.3-0.2,0.6-0.4,0.9-0.6C118.8,85.3,119.1,84.3,119.5,83.2L119.5,83.2z M132.1,78.3
		c0.4-0.1,0.9,0,1.2,0.3c0.2,0.2,0.4,0.5,0.4,0.9c0,0.3-0.2,0.6-0.5,0.8c-0.4,0.2-0.9,0.2-1.3,0c-0.2,0.3-0.3,0.7-0.2,1.1
		c0.1,0.5,0.1,1,0.2,1.6s0.2,1.2,0.2,1.8c0.1,0.7,0,1.4-0.2,2c1.4-0.6,2.7-1.5,3.6-2.7c0.1-0.2,0.3-0.2,0.5-0.2c0.2,0,0.4,0,0.5,0.1
		c0.2,0.1,0.2,0.3,0.3,0.4c0,0.2-0.1,0.4-0.2,0.6c-0.9,1-1.8,2-2.9,2.7c-1,0.7-2.1,1.1-3.2,1.2c-0.5,0.3-1,0.6-1.6,0.7
		c-0.6,0.1-1.2,0.1-1.7-0.1c-0.6-0.1-1.1-0.4-1.5-0.8c-0.4-0.4-0.8-0.9-0.9-1.4c-0.1-0.3-0.1-0.5-0.1-0.8c0-0.2,0.1-0.4,0.3-0.6
		c-0.1-0.1-0.2-0.3-0.3-0.5c0-0.2,0-0.4,0.2-0.6c0.7-0.9,1.3-1.6,1.8-2.2c0.5-0.6,1-1.2,1.4-1.7c0.3-0.4,0.7-0.8,1.1-1.2
		c0.3-0.3,0.6-0.6,1-0.9c0.3-0.2,0.6-0.4,0.9-0.5C131.4,78.4,131.8,78.4,132.1,78.3L132.1,78.3z M130.1,80.9c-0.5,0.4-1,0.9-1.3,1.5
		c-0.5,0.7-1.2,1.6-2.1,2.7c0.2,0,0.5,0.1,0.7,0.2c0.2,0.2,0.3,0.4,0.4,0.7c0,0.2,0.1,0.4,0.2,0.6c0.1,0.1,0.2,0.2,0.4,0.3
		c0.2,0,0.3,0,0.5,0c0.2-0.1,0.3-0.2,0.4-0.3c0.3-0.3,0.5-0.7,0.6-1.2c0.1-0.5,0.1-1,0.1-1.4v-1.6C130,81.9,130,81.4,130.1,80.9
		L130.1,80.9z"/>
</g>
</svg>
